<mxfile host="Electron" modified="2023-08-30T07:41:28.490Z" agent="Mozilla/5.0 (X11; Linux x86_64) AppleWebKit/537.36 (KHTML, like Gecko) draw.io/21.2.1 Chrome/112.0.5615.87 Electron/24.1.2 Safari/537.36" etag="9kBn6gYHcSdtZ1v_1sdH" version="21.2.1" type="device">
  <diagram name="第 1 页" id="auQ8NddAlK9GpcE89O1D">
    <mxGraphModel dx="1111" dy="668" grid="1" gridSize="10" guides="1" tooltips="1" connect="1" arrows="1" fold="1" page="1" pageScale="1" pageWidth="850" pageHeight="1100" math="0" shadow="0">
      <root>
        <mxCell id="0" />
        <mxCell id="1" parent="0" />
        <mxCell id="zWPCSpk3Rg9wXKslzkw4-2" value="&lt;font style=&quot;font-size: 16px;&quot;&gt;wb2byteout&lt;/font&gt;" style="rounded=1;whiteSpace=wrap;html=1;" vertex="1" parent="1">
          <mxGeometry x="360" y="310" width="100" height="40" as="geometry" />
        </mxCell>
        <mxCell id="zWPCSpk3Rg9wXKslzkw4-3" value="&lt;font style=&quot;font-size: 16px;&quot;&gt;wb2sram&lt;/font&gt;" style="rounded=1;whiteSpace=wrap;html=1;" vertex="1" parent="1">
          <mxGeometry x="360" y="250" width="100" height="40" as="geometry" />
        </mxCell>
        <mxCell id="zWPCSpk3Rg9wXKslzkw4-4" value="&lt;font style=&quot;font-size: 16px;&quot;&gt;wb2byteio&lt;/font&gt;" style="rounded=1;whiteSpace=wrap;html=1;" vertex="1" parent="1">
          <mxGeometry x="360" y="370" width="100" height="40" as="geometry" />
        </mxCell>
        <mxCell id="zWPCSpk3Rg9wXKslzkw4-5" value="&lt;font style=&quot;font-size: 16px;&quot;&gt;&lt;b&gt;wb_interconnect&lt;br&gt;&lt;br&gt;&lt;br&gt;&lt;br&gt;&lt;br&gt;&lt;br&gt;&lt;br&gt;&lt;br&gt;&lt;br&gt;&lt;br&gt;&lt;br&gt;&lt;/b&gt;&lt;/font&gt;" style="rounded=1;whiteSpace=wrap;html=1;fillColor=none;" vertex="1" parent="1">
          <mxGeometry x="330" y="190" width="160" height="260" as="geometry" />
        </mxCell>
        <mxCell id="zWPCSpk3Rg9wXKslzkw4-6" value="&lt;font style=&quot;font-size: 16px;&quot;&gt;&lt;b&gt;picorv32_wb&lt;br&gt;&lt;/b&gt;&lt;/font&gt;" style="rounded=1;whiteSpace=wrap;html=1;fillColor=none;" vertex="1" parent="1">
          <mxGeometry x="100" y="320" width="160" height="130" as="geometry" />
        </mxCell>
        <mxCell id="zWPCSpk3Rg9wXKslzkw4-7" value="" style="shape=flexArrow;endArrow=classic;startArrow=classic;html=1;rounded=0;exitX=1;exitY=0.5;exitDx=0;exitDy=0;entryX=0;entryY=0.75;entryDx=0;entryDy=0;" edge="1" parent="1" source="zWPCSpk3Rg9wXKslzkw4-6" target="zWPCSpk3Rg9wXKslzkw4-5">
          <mxGeometry width="100" height="100" relative="1" as="geometry">
            <mxPoint x="370" y="390" as="sourcePoint" />
            <mxPoint x="470" y="290" as="targetPoint" />
          </mxGeometry>
        </mxCell>
        <mxCell id="zWPCSpk3Rg9wXKslzkw4-9" value="&lt;font style=&quot;font-size: 25px;&quot;&gt;&lt;b&gt;picorv32_wrapper&amp;nbsp; &amp;nbsp; &amp;nbsp; &amp;nbsp; &amp;nbsp; &amp;nbsp; &amp;nbsp; &amp;nbsp; &amp;nbsp; &amp;nbsp; &amp;nbsp; &amp;nbsp; &amp;nbsp;&lt;br&gt;&lt;br&gt;&lt;br&gt;&lt;br&gt;&lt;br&gt;&lt;br&gt;&lt;br&gt;&lt;/b&gt;&lt;/font&gt;" style="rounded=1;whiteSpace=wrap;html=1;fillColor=none;" vertex="1" parent="1">
          <mxGeometry x="90" y="160" width="420" height="320" as="geometry" />
        </mxCell>
      </root>
    </mxGraphModel>
  </diagram>
</mxfile>
